# xmcd
#
# Track frame offsets:
#	150
#	27026
#	48540
#	77566
#	105873
#	127337
#	151422
#	172296
#	200040
#	221020
#	230191
#
# Disc length: 3258 seconds
#
# Revision: 1
# Processed by: cddbd v1.5.1PL2 Copyright (c) Steve Scherf et al.
# Submitted via: audiograbber 1.81.02
#
DISCID=9d0cb80b
DTITLE=Michael Schlierf - Facing
DYEAR=2005
DGENRE=Alternative
TTITLE0=Riding
TTITLE1=Israel
TTITLE2=Trip To Paris
TTITLE3=Blue
TTITLE4=Peace
TTITLE5=High Tide
TTITLE6=Meeting Jazz
TTITLE7=Take The Land
TTITLE8=Night
TTITLE9=Five Children
TTITLE10=Surrounding
EXTD=www.gerth.de - ArtNo. 946828
EXTT0=
EXTT1=
EXTT2=
EXTT3=
EXTT4=
EXTT5=
EXTT6=
EXTT7=
EXTT8=
EXTT9=
EXTT10=
PLAYORDER=
